<svg width="60" height="60" viewBox="0 0 60 60" fill="none" xmlns="http://www.w3.org/2000/svg">
<g id="Frame">
<g id="Group">
<path id="Vector" fill-rule="evenodd" clip-rule="evenodd" d="M38.7788 45.8975L42.3138 49.4325C42.5482 49.6668 42.866 49.7985 43.1975 49.7985C43.529 49.7985 43.8468 49.6668 44.0812 49.4325L51.1513 42.3625C51.3789 42.1267 51.5049 41.811 51.5021 41.4832C51.4992 41.1555 51.3678 40.842 51.136 40.6102C50.9043 40.3785 50.5907 40.247 50.263 40.2442C49.9353 40.2413 49.6195 40.3673 49.3838 40.595L43.1975 46.7812L40.5462 44.13C40.3105 43.9023 39.9947 43.7763 39.667 43.7792C39.3393 43.782 39.0257 43.9135 38.794 44.1452C38.5622 44.377 38.4308 44.6905 38.4279 45.0182C38.4251 45.346 38.5511 45.6617 38.7788 45.8975ZM16.25 24C16.25 23.2713 15.96 22.5712 15.445 22.055C14.9287 21.5399 14.2293 21.2504 13.5 21.25H11.5C10.7712 21.25 10.0713 21.54 9.555 22.055C9.03991 22.5713 8.75044 23.2707 8.75 24V26C8.75 26.7287 9.04 27.4288 9.555 27.945C10.0713 28.46 10.7712 28.75 11.5 28.75H13.5C14.2288 28.75 14.9288 28.46 15.445 27.945C15.96 27.4288 16.25 26.7287 16.25 26V24ZM13.75 24V26C13.7501 26.0328 13.7436 26.0653 13.7309 26.0956C13.7182 26.1258 13.6997 26.1533 13.6762 26.1762C13.6533 26.1997 13.6258 26.2182 13.5956 26.2309C13.5653 26.2436 13.5328 26.2501 13.5 26.25H11.5C11.4672 26.2501 11.4347 26.2436 11.4044 26.2309C11.3742 26.2182 11.3467 26.1997 11.3238 26.1762C11.3003 26.1533 11.2818 26.1258 11.2691 26.0956C11.2564 26.0653 11.2499 26.0328 11.25 26V24C11.25 23.9338 11.2763 23.87 11.3238 23.8238C11.3467 23.8003 11.3742 23.7818 11.4044 23.7691C11.4347 23.7564 11.4672 23.7499 11.5 23.75H13.5C13.5663 23.75 13.63 23.7763 13.6762 23.8238C13.6997 23.8467 13.7182 23.8742 13.7309 23.9044C13.7436 23.9347 13.7501 23.9672 13.75 24ZM16.25 34C16.25 33.2713 15.96 32.5712 15.445 32.055C14.9287 31.5399 14.2293 31.2504 13.5 31.25H11.5C10.7712 31.25 10.0713 31.54 9.555 32.055C9.03991 32.5713 8.75044 33.2707 8.75 34V36C8.75 36.7287 9.04 37.4288 9.555 37.945C10.0713 38.46 10.7712 38.75 11.5 38.75H13.5C14.2288 38.75 14.9288 38.46 15.445 37.945C15.96 37.4288 16.25 36.7287 16.25 36V34ZM13.75 34V36C13.7501 36.0328 13.7436 36.0653 13.7309 36.0956C13.7182 36.1258 13.6997 36.1533 13.6762 36.1763C13.6533 36.1997 13.6258 36.2182 13.5956 36.2309C13.5653 36.2436 13.5328 36.2501 13.5 36.25H11.5C11.4672 36.2501 11.4347 36.2436 11.4044 36.2309C11.3742 36.2182 11.3467 36.1997 11.3238 36.1763C11.3003 36.1533 11.2818 36.1258 11.2691 36.0956C11.2564 36.0653 11.2499 36.0328 11.25 36V34C11.25 33.9338 11.2763 33.87 11.3238 33.8237C11.3467 33.8003 11.3742 33.7818 11.4044 33.7691C11.4347 33.7564 11.4672 33.7499 11.5 33.75H13.5C13.5663 33.75 13.63 33.7762 13.6762 33.8237C13.6997 33.8467 13.7182 33.8742 13.7309 33.9044C13.7436 33.9347 13.7501 33.9672 13.75 34ZM16.25 44C16.25 43.2713 15.96 42.5713 15.445 42.055C14.9287 41.5399 14.2293 41.2504 13.5 41.25H11.5C10.7712 41.25 10.0713 41.54 9.555 42.055C9.03991 42.5713 8.75044 43.2707 8.75 44V46C8.75 46.7287 9.04 47.4287 9.555 47.945C10.0713 48.46 10.7712 48.75 11.5 48.75H13.5C14.2288 48.75 14.9288 48.46 15.445 47.945C15.96 47.4287 16.25 46.7287 16.25 46V44ZM13.75 44V46C13.7501 46.0328 13.7436 46.0653 13.7309 46.0956C13.7182 46.1258 13.6997 46.1533 13.6762 46.1763C13.6533 46.1997 13.6258 46.2183 13.5956 46.2309C13.5653 46.2436 13.5328 46.2501 13.5 46.25H11.5C11.4672 46.2501 11.4347 46.2436 11.4044 46.2309C11.3742 46.2183 11.3467 46.1997 11.3238 46.1763C11.3003 46.1533 11.2818 46.1258 11.2691 46.0956C11.2564 46.0653 11.2499 46.0328 11.25 46V44C11.25 43.9338 11.2763 43.87 11.3238 43.8237C11.3467 43.8003 11.3742 43.7817 11.4044 43.7691C11.4347 43.7564 11.4672 43.7499 11.5 43.75H13.5C13.5663 43.75 13.63 43.7762 13.6762 43.8237C13.6997 43.8467 13.7182 43.8742 13.7309 43.9044C13.7436 43.9347 13.7501 43.9672 13.75 44ZM26.25 24C26.25 23.2713 25.96 22.5712 25.445 22.055C24.9287 21.5399 24.2293 21.2504 23.5 21.25H21.5C20.7713 21.25 20.0712 21.54 19.555 22.055C19.0399 22.5713 18.7504 23.2707 18.75 24V26C18.75 26.7287 19.04 27.4288 19.555 27.945C20.0712 28.46 20.7713 28.75 21.5 28.75H23.5C24.2287 28.75 24.9288 28.46 25.445 27.945C25.96 27.4288 26.25 26.7287 26.25 26V24ZM23.75 24V26C23.7501 26.0328 23.7436 26.0653 23.7309 26.0956C23.7182 26.1258 23.6997 26.1533 23.6763 26.1762C23.6533 26.1997 23.6258 26.2182 23.5956 26.2309C23.5653 26.2436 23.5328 26.2501 23.5 26.25H21.5C21.4672 26.2501 21.4347 26.2436 21.4044 26.2309C21.3742 26.2182 21.3467 26.1997 21.3237 26.1762C21.3003 26.1533 21.2818 26.1258 21.2691 26.0956C21.2564 26.0653 21.2499 26.0328 21.25 26V24C21.25 23.9338 21.2762 23.87 21.3237 23.8238C21.3467 23.8003 21.3742 23.7818 21.4044 23.7691C21.4347 23.7564 21.4672 23.7499 21.5 23.75H23.5C23.5662 23.75 23.63 23.7763 23.6763 23.8238C23.6997 23.8467 23.7182 23.8742 23.7309 23.9044C23.7436 23.9347 23.7501 23.9672 23.75 24ZM26.25 34C26.25 33.2713 25.96 32.5712 25.445 32.055C24.9287 31.5399 24.2293 31.2504 23.5 31.25H21.5C20.7713 31.25 20.0712 31.54 19.555 32.055C19.0399 32.5713 18.7504 33.2707 18.75 34V36C18.75 36.7287 19.04 37.4288 19.555 37.945C20.0712 38.46 20.7713 38.75 21.5 38.75H23.5C24.2287 38.75 24.9288 38.46 25.445 37.945C25.96 37.4288 26.25 36.7287 26.25 36V34ZM23.75 34V36C23.7501 36.0328 23.7436 36.0653 23.7309 36.0956C23.7182 36.1258 23.6997 36.1533 23.6763 36.1763C23.6533 36.1997 23.6258 36.2182 23.5956 36.2309C23.5653 36.2436 23.5328 36.2501 23.5 36.25H21.5C21.4672 36.2501 21.4347 36.2436 21.4044 36.2309C21.3742 36.2182 21.3467 36.1997 21.3237 36.1763C21.3003 36.1533 21.2818 36.1258 21.2691 36.0956C21.2564 36.0653 21.2499 36.0328 21.25 36V34C21.25 33.9338 21.2762 33.87 21.3237 33.8237C21.3467 33.8003 21.3742 33.7818 21.4044 33.7691C21.4347 33.7564 21.4672 33.7499 21.5 33.75H23.5C23.5662 33.75 23.63 33.7762 23.6763 33.8237C23.6997 33.8467 23.7182 33.8742 23.7309 33.9044C23.7436 33.9347 23.7501 33.9672 23.75 34ZM26.25 44C26.25 43.2713 25.96 42.5713 25.445 42.055C24.9287 41.5399 24.2293 41.2504 23.5 41.25H21.5C20.7713 41.25 20.0712 41.54 19.555 42.055C19.0399 42.5713 18.7504 43.2707 18.75 44V46C18.75 46.7287 19.04 47.4287 19.555 47.945C20.0712 48.46 20.7713 48.75 21.5 48.75H23.5C24.2287 48.75 24.9288 48.46 25.445 47.945C25.96 47.4287 26.25 46.7287 26.25 46V44ZM23.75 44V46C23.7501 46.0328 23.7436 46.0653 23.7309 46.0956C23.7182 46.1258 23.6997 46.1533 23.6763 46.1763C23.6533 46.1997 23.6258 46.2183 23.5956 46.2309C23.5653 46.2436 23.5328 46.2501 23.5 46.25H21.5C21.4672 46.2501 21.4347 46.2436 21.4044 46.2309C21.3742 46.2183 21.3467 46.1997 21.3237 46.1763C21.3003 46.1533 21.2818 46.1258 21.2691 46.0956C21.2564 46.0653 21.2499 46.0328 21.25 46V44C21.25 43.9338 21.2762 43.87 21.3237 43.8237C21.3467 43.8003 21.3742 43.7817 21.4044 43.7691C21.4347 43.7564 21.4672 43.7499 21.5 43.75H23.5C23.5662 43.75 23.63 43.7762 23.6763 43.8237C23.6997 43.8467 23.7182 43.8742 23.7309 43.9044C23.7436 43.9347 23.7501 43.9672 23.75 44ZM36.25 24C36.25 23.2713 35.96 22.5712 35.445 22.055C34.9287 21.5399 34.2293 21.2504 33.5 21.25H31.5C30.7713 21.25 30.0712 21.54 29.555 22.055C29.0399 22.5713 28.7504 23.2707 28.75 24V26C28.75 26.7287 29.04 27.4288 29.555 27.945C30.0712 28.46 30.7713 28.75 31.5 28.75H33.5C34.2287 28.75 34.9288 28.46 35.445 27.945C35.96 27.4288 36.25 26.7287 36.25 26V24ZM33.75 24V26C33.7501 26.0328 33.7436 26.0653 33.7309 26.0956C33.7183 26.1258 33.6997 26.1533 33.6763 26.1762C33.6533 26.1997 33.6258 26.2182 33.5956 26.2309C33.5653 26.2436 33.5328 26.2501 33.5 26.25H31.5C31.4672 26.2501 31.4347 26.2436 31.4044 26.2309C31.3742 26.2182 31.3467 26.1997 31.3237 26.1762C31.3003 26.1533 31.2817 26.1258 31.2691 26.0956C31.2564 26.0653 31.2499 26.0328 31.25 26V24C31.25 23.9338 31.2763 23.87 31.3237 23.8238C31.3467 23.8003 31.3742 23.7818 31.4044 23.7691C31.4347 23.7564 31.4672 23.7499 31.5 23.75H33.5C33.5662 23.75 33.63 23.7763 33.6763 23.8238C33.6997 23.8467 33.7183 23.8742 33.7309 23.9044C33.7436 23.9347 33.7501 23.9672 33.75 24ZM46.25 24C46.25 23.2713 45.96 22.5712 45.445 22.055C44.9287 21.5399 44.2293 21.2504 43.5 21.25H41.5C40.7713 21.25 40.0712 21.54 39.555 22.055C39.0399 22.5713 38.7504 23.2707 38.75 24V26C38.75 26.7287 39.04 27.4288 39.555 27.945C40.0712 28.46 40.7713 28.75 41.5 28.75H43.5C44.2287 28.75 44.9287 28.46 45.445 27.945C45.96 27.4288 46.25 26.7287 46.25 26V24ZM43.75 24V26C43.7501 26.0328 43.7436 26.0653 43.7309 26.0956C43.7183 26.1258 43.6997 26.1533 43.6763 26.1762C43.6533 26.1997 43.6258 26.2182 43.5956 26.2309C43.5653 26.2436 43.5328 26.2501 43.5 26.25H41.5C41.4672 26.2501 41.4347 26.2436 41.4044 26.2309C41.3742 26.2182 41.3467 26.1997 41.3237 26.1762C41.3003 26.1533 41.2817 26.1258 41.2691 26.0956C41.2564 26.0653 41.2499 26.0328 41.25 26V24C41.25 23.9338 41.2762 23.87 41.3237 23.8238C41.3467 23.8003 41.3742 23.7818 41.4044 23.7691C41.4347 23.7564 41.4672 23.7499 41.5 23.75H43.5C43.5662 23.75 43.63 23.7763 43.6763 23.8238C43.6997 23.8467 43.7183 23.8742 43.7309 23.9044C43.7436 23.9347 43.7501 23.9672 43.75 24Z" fill="#187586"/>
<path id="Vector_2" fill-rule="evenodd" clip-rule="evenodd" d="M34.3963 53.75H7.5C5.84239 53.7498 4.25265 53.0916 3.08 51.92C1.90843 50.7473 1.25024 49.1576 1.25 47.5V12.5C1.25 10.8424 1.90848 9.25268 3.08058 8.08058C4.25269 6.90848 5.8424 6.25 7.5 6.25H11.25V5C11.25 4.00544 11.6451 3.05161 12.3483 2.34835C13.0516 1.64509 14.0054 1.25 15 1.25C15.9946 1.25 16.9484 1.64509 17.6517 2.34835C18.3549 3.05161 18.75 4.00544 18.75 5V6.25H36.25V5C36.25 4.00544 36.6451 3.05161 37.3484 2.34835C38.0516 1.64509 39.0054 1.25 40 1.25C40.9946 1.25 41.9484 1.64509 42.6516 2.34835C43.3549 3.05161 43.75 4.00544 43.75 5V6.25H47.5C49.1576 6.25 50.7473 6.90848 51.9194 8.08058C53.0915 9.25268 53.75 10.8424 53.75 12.5V34.3963C56.8037 36.92 58.75 40.7337 58.75 45C58.75 52.5887 52.5887 58.75 45 58.75C42.973 58.7514 40.9708 58.3038 39.1374 57.4392C37.3039 56.5747 35.6848 55.3148 34.3963 53.75ZM45 33.75C51.2088 33.75 56.25 38.7912 56.25 45C56.25 51.2088 51.2088 56.25 45 56.25C38.7912 56.25 33.75 51.2088 33.75 45C33.75 38.7912 38.7912 33.75 45 33.75ZM51.25 32.7513V18.75H3.75V47.5C3.75 48.495 4.145 49.4487 4.84875 50.1512C5.19673 50.4997 5.61001 50.7761 6.06495 50.9647C6.51989 51.1532 7.00754 51.2502 7.5 51.25H32.7513C31.7913 49.375 31.25 47.25 31.25 45C31.25 37.4113 37.4113 31.25 45 31.25C47.25 31.25 49.375 31.7913 51.25 32.7513ZM43.75 8.75V10C43.75 10.9946 43.3549 11.9484 42.6516 12.6517C41.9484 13.3549 40.9946 13.75 40 13.75C39.0054 13.75 38.0516 13.3549 37.3484 12.6517C36.6451 11.9484 36.25 10.9946 36.25 10V8.75H18.75V10C18.75 10.9946 18.3549 11.9484 17.6517 12.6517C16.9484 13.3549 15.9946 13.75 15 13.75C14.0054 13.75 13.0516 13.3549 12.3483 12.6517C11.6451 11.9484 11.25 10.9946 11.25 10V8.75H7.5C6.50544 8.75 5.55161 9.14509 4.84835 9.84835C4.14509 10.5516 3.75 11.5054 3.75 12.5V16.25H51.25V12.5C51.25 11.5054 50.8549 10.5516 50.1516 9.84835C49.4484 9.14509 48.4946 8.75 47.5 8.75H43.75ZM41.25 5V10C41.25 10.3315 41.1183 10.6495 40.8839 10.8839C40.6495 11.1183 40.3315 11.25 40 11.25C39.6685 11.25 39.3505 11.1183 39.1161 10.8839C38.8817 10.6495 38.75 10.3315 38.75 10V5C38.75 4.66848 38.8817 4.35054 39.1161 4.11612C39.3505 3.8817 39.6685 3.75 40 3.75C40.3315 3.75 40.6495 3.8817 40.8839 4.11612C41.1183 4.35054 41.25 4.66848 41.25 5ZM16.25 5V10C16.25 10.3315 16.1183 10.6495 15.8839 10.8839C15.6495 11.1183 15.3315 11.25 15 11.25C14.6685 11.25 14.3505 11.1183 14.1161 10.8839C13.8817 10.6495 13.75 10.3315 13.75 10V5C13.75 4.66848 13.8817 4.35054 14.1161 4.11612C14.3505 3.8817 14.6685 3.75 15 3.75C15.3315 3.75 15.6495 3.8817 15.8839 4.11612C16.1183 4.35054 16.25 4.66848 16.25 5Z" fill="#187586"/>
</g>
</g>
</svg>
