<svg width="60" height="60" viewBox="0 0 60 60" fill="none" xmlns="http://www.w3.org/2000/svg">
<g id="Frame" clip-path="url(#clip0_2809_2074)">
<g id="Group">
<path id="Vector" d="M59.9274 33.4471C59.484 30.3754 57.0709 27.9623 53.9992 27.519V25.701C53.9992 20.6851 50.1863 16.6011 45.4993 16.6011C40.9474 16.6011 37.1365 20.5611 36.9995 25.429H37.0575L36.9995 25.439V45.1457C36.9995 51.4456 32.2895 56.5615 26.4996 56.5615C20.7097 56.5615 15.9998 51.4386 15.9998 45.1457V43.4387C17.4497 43.4387 18.9997 42.3878 18.9997 39.4388V36.9238C25.4176 35.2829 29.9996 29.7719 29.9996 23.524V21.4391H27.9996L27.9576 8.42424C27.9431 6.01515 26.2144 3.95818 23.8437 3.52931C23.3323 1.96271 21.6477 1.10723 20.081 1.61872C18.5144 2.13009 17.6589 3.81469 18.1704 5.38141C18.6817 6.94801 20.3663 7.8035 21.9331 7.29201C22.3474 7.15672 22.7272 6.93228 23.0455 6.63448C23.3638 6.33668 23.6131 5.97275 23.7757 5.56829C24.3994 5.74573 24.9488 6.12051 25.3416 6.63647C25.7345 7.15243 25.9495 7.78178 25.9546 8.43024L25.9996 21.4391H23.9996V23.553C23.9199 27.0313 21.5879 30.0541 18.2437 31.0139C16.4544 31.5817 14.5332 31.5817 12.7438 31.0139C9.40349 30.0508 7.07677 27.0286 6.9999 23.553V21.4391H3.99994V8.43924C4.00275 7.78168 4.22154 7.14325 4.62265 6.62217C5.02375 6.1011 5.58495 5.72625 6.21991 5.55529C6.82853 7.10464 8.57787 7.86713 10.1272 7.25851C11.6766 6.64989 12.4391 4.90042 11.8305 3.35119C11.2218 1.80196 9.47236 1.03935 7.92313 1.64797C7.50854 1.81086 7.13519 2.06361 6.82997 2.38805C6.52474 2.7125 6.29522 3.10055 6.15791 3.52431C3.76132 3.93381 2.0066 6.0079 1.99997 8.43924V21.4391H0V23.519C0 29.7739 4.58493 35.2868 10.9998 36.9238V39.4388C10.9998 42.3878 12.5498 43.4387 13.9998 43.4387V45.1457C13.9998 52.5456 19.6067 58.5615 26.4996 58.5615C33.3925 58.5615 38.9994 52.5386 38.9994 45.1457V25.487C39.0994 21.6921 42.0174 18.6041 45.4993 18.6041C49.0833 18.6041 51.9992 21.788 51.9992 25.704V27.519C48.1729 28.0712 45.5188 31.6208 46.0711 35.4471C46.6233 39.2734 50.1729 41.9275 53.9992 41.3753C57.8255 40.823 60.4796 37.2733 59.9274 33.4471ZM20.9997 5.43929C20.7345 5.43929 20.4801 5.33393 20.2926 5.1464C20.1051 4.95886 19.9997 4.70451 19.9997 4.4393C19.9997 4.17409 20.1051 3.91974 20.2926 3.73221C20.4801 3.54467 20.7345 3.43932 20.9997 3.43932C21.2649 3.43932 21.5193 3.54467 21.7068 3.73221C21.8943 3.91974 21.9997 4.17409 21.9997 4.4393C21.9997 4.70451 21.8943 4.95886 21.7068 5.1464C21.5193 5.33393 21.2649 5.43929 20.9997 5.43929ZM8.99987 3.43932C9.26508 3.43932 9.51943 3.54467 9.70696 3.73221C9.8945 3.91974 9.99985 4.17409 9.99985 4.4393C9.99985 4.70451 9.8945 4.95886 9.70696 5.1464C9.51943 5.33393 9.26508 5.43929 8.99987 5.43929C8.73466 5.43929 8.48031 5.33393 8.29277 5.1464C8.10524 4.95886 7.99988 4.70451 7.99988 4.4393C7.99988 4.17409 8.10524 3.91974 8.29277 3.73221C8.48031 3.54467 8.73466 3.43932 8.99987 3.43932ZM1.99997 23.519V23.439H4.99993V23.553C5.07493 27.8993 7.96651 31.6924 12.1378 32.9159C14.3236 33.608 16.6699 33.608 18.8557 32.9159C23.029 31.694 25.9232 27.9008 25.9996 23.553V23.439H27.9996V23.519C27.9996 29.0819 23.7117 33.9769 17.7997 35.1609C16.4115 35.4388 14.9896 35.5086 13.5808 35.3679C13.1171 35.3229 12.6561 35.2531 12.1998 35.1589C6.28791 33.9769 1.99997 29.0819 1.99997 23.519ZM13.9998 41.4388C13.0998 41.4388 12.9998 40.0388 12.9998 39.4388V37.3168C13.0798 37.3268 13.1618 37.3308 13.2428 37.3388C13.3428 37.3498 13.4428 37.3578 13.5428 37.3668C14.0158 37.4088 14.4928 37.4368 14.9738 37.4378H15.0238C15.5038 37.4378 15.9798 37.4088 16.4498 37.3668C16.5498 37.3578 16.6558 37.3498 16.7588 37.3388C16.8378 37.3298 16.9198 37.3268 16.9988 37.3168V39.4388C16.9988 40.0388 16.8988 41.4388 15.9988 41.4388H13.9998ZM52.9992 39.4388C50.2379 39.4388 47.9993 37.2002 47.9993 34.4389C47.9993 31.6775 50.2379 29.4389 52.9992 29.4389C55.7606 29.4389 57.9992 31.6775 57.9992 34.4389C57.9959 37.199 55.7592 39.4355 52.9992 39.4388Z" fill="#187586"/>
<path id="Vector_2" d="M53 31.439C51.3431 31.439 50 32.7821 50 34.4389C50 36.0958 51.3431 37.4389 53 37.4389C54.6568 37.4389 55.9999 36.0958 55.9999 34.4389C55.9999 32.7821 54.6568 31.439 53 31.439ZM53 35.4389C52.7347 35.4389 52.4804 35.3335 52.2929 35.146C52.1053 34.9585 52 34.7041 52 34.4389C52 34.1737 52.1053 33.9194 52.2929 33.7318C52.4804 33.5443 52.7347 33.4389 53 33.4389C53.2652 33.4389 53.5195 33.5443 53.7071 33.7318C53.8946 33.9194 53.9999 34.1737 53.9999 34.4389C53.9999 34.7041 53.8946 34.9585 53.7071 35.146C53.5195 35.3335 53.2652 35.4389 53 35.4389Z" fill="#187586"/>
</g>
</g>
<defs>
<clipPath id="clip0_2809_2074">
<rect width="60" height="60" fill="white"/>
</clipPath>
</defs>
</svg>
