<svg width="60" height="60" viewBox="0 0 60 60" fill="none" xmlns="http://www.w3.org/2000/svg">
<g id="Frame" clip-path="url(#clip0_2809_2070)">
<g id="Group">
<path id="Vector" fill-rule="evenodd" clip-rule="evenodd" d="M13.4225 52.1592C13.2399 51.7715 12.9622 51.4512 12.5875 51.1937L7.74877 47.8689C6.07606 46.7199 5.2823 44.2328 4.675 42.3854L1.12359 31.6144L1.12335 31.614C0.701236 30.331 1.05312 28.8459 1.84971 27.8436C2.42477 27.12 3.22065 26.6507 4.09747 26.6077C5.38018 26.5449 7.02935 27.4324 8.30641 30.4482L11.0916 37.0193C11.9026 36.8895 12.7636 37.066 13.4806 37.5804L13.481 37.5807L17.6609 40.5835C19.3942 41.0754 20.5375 41.697 21.3442 42.4495C22.5882 43.61 23.0534 45.103 23.523 47.0946C23.9219 48.7862 24.3397 50.4729 24.7616 52.1592H25.2559C26.3462 52.1592 27.2367 53.0496 27.2367 54.1389L27.2399 57.0736V57.0746C27.2399 57.6202 27.0471 58.0863 26.6663 58.4729C26.6634 58.4758 26.6605 58.4787 26.6576 58.4815C26.2714 58.8621 25.8046 59.0586 25.2592 59.0586H25.2586C22.1045 59.056 14.1362 59.0553 13.3206 59.0553C12.2298 59.0553 11.3399 58.1688 11.3399 57.0788L11.3366 54.1408V54.1399C11.3366 53.5992 11.529 53.132 11.9104 52.7449L11.9146 52.7406C12.3024 52.3528 12.7701 52.1592 13.3174 52.1592H13.4225ZM23.0639 52.1592C22.6742 50.5988 22.289 49.0379 21.9199 47.4726C21.5372 45.8503 21.2342 44.5993 20.2206 43.6539C19.5444 43.023 18.5617 42.5382 17.0811 42.1317C16.9869 42.1059 16.898 42.0634 16.8186 42.0064L12.5205 38.9187C11.8156 38.413 10.8261 38.5736 10.3225 39.2784L10.3209 39.2808C9.815 39.9839 9.97736 40.9736 10.6803 41.4795L16.3924 45.5843C16.5697 45.7119 16.6891 45.9045 16.7244 46.12C16.7597 46.3355 16.708 46.5562 16.5807 46.7336C16.4531 46.9109 16.2604 47.0303 16.0449 47.0656C15.8294 47.1009 15.6087 47.0492 15.4312 46.9219L9.71877 42.8167L9.7183 42.8164C8.28077 41.7819 7.94935 39.7579 8.98312 38.32C9.15345 38.0814 9.35582 37.8675 9.58453 37.6842L6.78982 31.0907C6.31582 29.9713 5.81206 29.211 5.29406 28.7453C4.90771 28.3979 4.533 28.2355 4.17794 28.2529C3.76524 28.273 3.40982 28.5277 3.13912 28.8684C2.667 29.4624 2.43771 30.3387 2.68794 31.099L6.23935 41.8701L6.23959 41.8708C6.50888 42.6901 6.80253 43.6604 7.21677 44.5523C7.5803 45.3355 8.03006 46.0639 8.68147 46.5114L13.5203 49.8362C14.3614 50.4142 14.9085 51.1829 15.169 52.1592H23.0639ZM25.2559 53.8062H13.3174C13.2255 53.8062 13.1469 53.8387 13.0802 53.9044C13.0169 53.9702 12.9837 54.0487 12.9837 54.1399L12.987 57.0769V57.0779C12.987 57.2608 13.1377 57.4082 13.3206 57.4082C17.2991 57.4082 21.2809 57.4082 25.2594 57.4115C25.3521 57.4115 25.4307 57.3762 25.4983 57.3114C25.5609 57.2455 25.5929 57.1667 25.5929 57.0746L25.5896 54.1408V54.1399C25.5894 54.0514 25.5542 53.9667 25.4916 53.9042C25.4291 53.8417 25.3444 53.8064 25.2559 53.8062ZM7.82982 20.5092H2.11735C1.66288 20.5092 1.29382 20.1401 1.29382 19.6856C1.29382 19.231 1.66288 18.8621 2.11735 18.8621H7.08982C6.19547 16.6537 5.70112 14.4454 5.70112 12.2397C5.70112 6.03127 11.3026 0.940918 18.2615 0.940918C23.7322 0.940918 26.8139 3.06774 29.5936 7.34339C29.5941 7.34429 29.5946 7.34516 29.5952 7.34598C29.6863 7.48715 29.8322 7.56492 30.0011 7.56492C30.1703 7.56492 30.3164 7.4848 30.4092 7.34257C33.1858 3.06751 36.2676 0.940918 41.7379 0.940918C48.6968 0.940918 54.2983 6.03127 54.2983 12.2397C54.2983 14.4454 53.8039 16.6537 52.9096 18.8621H57.8821C58.3365 18.8621 58.7056 19.231 58.7056 19.6856C58.7056 20.1401 58.3365 20.5092 57.8821 20.5092H52.1696C51.4368 21.9972 50.5329 23.4847 49.4868 24.971C45.1421 31.1444 38.3344 37.3233 31.4208 43.4947C31.0309 43.8459 30.5248 44.0403 30.0001 44.0404C29.4754 44.0405 28.9692 43.8463 28.5792 43.4953C21.665 37.3233 14.8574 31.1444 10.5126 24.971C9.46653 23.4847 8.56265 21.9972 7.82982 20.5092ZM51.1262 18.8621C52.1002 16.6554 52.6512 14.4492 52.6512 12.2397C52.6512 6.88586 47.7389 2.58798 41.7379 2.58798C36.9277 2.58798 34.2312 4.48139 31.7897 8.2408L31.7889 8.24221C31.3827 8.86504 30.7414 9.21198 30.0011 9.21198C29.255 9.21198 28.6135 8.86268 28.2127 8.24115C25.7685 4.48151 23.0719 2.58798 18.2615 2.58798C12.2605 2.58798 7.34818 6.88586 7.34818 12.2397C7.34818 14.4492 7.89924 16.6554 8.87324 18.8621H19.7008C19.8491 18.8621 19.9946 18.9021 20.122 18.9779C20.2495 19.0537 20.3541 19.1626 20.4248 19.2929L23.3712 24.7254L27.7324 14.2586C27.7953 14.1076 27.9018 13.9787 28.0382 13.8884C28.1747 13.7982 28.3349 13.7506 28.4985 13.7517C28.6621 13.7529 28.8216 13.8028 28.9567 13.895C29.0919 13.9871 29.1965 14.1175 29.2572 14.2694L32.6795 22.8253L37.0919 15.8915C37.1586 15.7867 37.2481 15.6982 37.3538 15.6329C37.4595 15.5676 37.5786 15.527 37.7021 15.5143C37.8257 15.5015 37.9506 15.5169 38.0674 15.5593C38.1842 15.6016 38.2899 15.6699 38.3765 15.7589L41.3996 18.8621H51.1262ZM9.67665 20.5092C10.3006 21.68 11.0348 22.8512 11.8596 24.0232C16.1412 30.1068 22.8622 36.1842 29.6761 42.2664L29.6768 42.267C29.7654 42.3469 29.8804 42.3911 29.9997 42.3911C30.119 42.3911 30.234 42.3469 30.3227 42.267L30.3234 42.2664C37.1372 36.1842 43.8582 30.1068 48.1398 24.0232C48.9647 22.8512 49.6988 21.68 50.3228 20.5092H41.0522C40.9422 20.5091 40.8334 20.4871 40.7321 20.4444C40.6307 20.4016 40.539 20.339 40.4623 20.2602L37.9229 17.6535L33.2064 25.065C33.1251 25.1929 33.01 25.2958 32.8739 25.3625C32.7378 25.4292 32.586 25.457 32.4351 25.4429C32.2842 25.4288 32.1401 25.3734 32.0187 25.2827C31.8973 25.1919 31.8033 25.0695 31.747 24.9288L28.477 16.7537L24.2289 26.9493C24.1691 27.0927 24.07 27.2164 23.9429 27.3059C23.8158 27.3954 23.666 27.4471 23.5107 27.455C23.3555 27.4629 23.2012 27.4268 23.0657 27.3507C22.9301 27.2747 22.8189 27.1618 22.7448 27.0252L19.2106 20.5092H9.67665ZM46.6821 59.0553C45.8663 59.0553 37.8981 59.056 34.7408 59.0586H34.7402C34.1977 59.0586 33.7234 58.8597 33.3408 58.4772C32.9531 58.0895 32.7595 57.6219 32.7595 57.0746V57.0736L32.7628 54.1399C32.7628 53.0496 33.6532 52.1592 34.7435 52.1592H35.2387C35.6612 50.4733 36.0794 48.7869 36.4762 47.0955L36.4764 47.0944C36.9462 45.1029 37.4125 43.6097 38.6577 42.4493C39.4649 41.6969 40.6087 41.0754 42.3417 40.5836L46.5211 37.5812C47.2363 37.0666 48.0964 36.8896 48.9079 37.0192L51.6929 30.4484C52.9701 27.4324 54.6192 26.5449 55.9019 26.6077C56.7788 26.6507 57.5746 27.12 58.1497 27.8436C58.9463 28.8459 59.2982 30.331 58.8761 31.614L55.3277 42.3856L55.3274 42.3866C54.7165 44.2335 53.9231 46.7201 52.2506 47.8689L47.4119 51.1937C47.0372 51.4512 46.7595 51.7715 46.5769 52.1592H46.6854C47.2288 52.1592 47.7032 52.3544 48.0869 52.7427C48.4737 53.1306 48.6661 53.5984 48.6661 54.1399V54.1408L48.6628 57.0779C48.6628 58.1688 47.773 59.0553 46.6821 59.0553ZM46.6854 53.8062H34.7435C34.655 53.8064 34.5703 53.8417 34.5078 53.9042C34.4453 53.9667 34.41 54.0514 34.4098 54.1399V54.1408L34.4065 57.0746C34.4065 57.1675 34.4396 57.2468 34.5055 57.3126C34.5697 57.3768 34.6489 57.4115 34.7401 57.4115C38.7218 57.4082 42.7003 57.4082 46.6821 57.4082C46.865 57.4082 47.0157 57.2608 47.0157 57.0779V57.0769L47.019 54.1399C47.019 54.0487 46.9854 53.9704 46.9201 53.9052L46.9158 53.9009C46.8529 53.837 46.7745 53.8062 46.6854 53.8062ZM44.8304 52.1592C45.0915 51.1822 45.6385 50.4139 46.4791 49.8362L51.3179 46.5114C51.9695 46.0639 52.4192 45.3353 52.7832 44.5521C53.1978 43.66 53.4924 42.6896 53.7634 41.8701L57.3115 31.0992C57.5617 30.3387 57.3324 29.4624 56.8603 28.8684C56.5896 28.5277 56.2342 28.273 55.8215 28.2529C55.4664 28.2355 55.0917 28.3979 54.7054 28.7453C54.1874 29.211 53.6836 29.9713 53.2096 31.0907L50.4154 37.6832C50.6448 37.8665 50.848 38.0805 51.0191 38.3193C52.0537 39.7574 51.7226 41.7822 50.2807 42.8167L44.5682 46.9219C44.3908 47.0492 44.17 47.1009 43.9545 47.0656C43.739 47.0303 43.5463 46.9109 43.4188 46.7336C43.2915 46.5562 43.2398 46.3355 43.2751 46.12C43.3104 45.9045 43.4297 45.7119 43.607 45.5843L49.3195 41.4792L49.3201 41.4788C50.025 40.973 50.1876 39.9836 49.6819 39.2808L49.6812 39.2799C49.1755 38.5749 48.1859 38.4123 47.4832 38.918L47.4827 38.9184L43.1841 42.0064C43.1047 42.0634 43.0158 42.1059 42.9216 42.1317C41.4409 42.5382 40.4576 43.0233 39.7807 43.6541C38.7664 44.5994 38.4622 45.8502 38.0795 47.4722C37.7123 49.0376 37.3269 50.5988 36.9366 52.1592H44.8304Z" fill="#187586"/>
</g>
</g>
<defs>
<clipPath id="clip0_2809_2070">
<rect width="60" height="60" fill="white"/>
</clipPath>
</defs>
</svg>
