<svg width="60" height="60" viewBox="0 0 60 60" fill="none" xmlns="http://www.w3.org/2000/svg">
<g id="Frame">
<g id="Group">
<path id="Vector" d="M58.125 25.7812C58.498 25.7812 58.8556 25.6331 59.1194 25.3694C59.3831 25.1056 59.5312 24.748 59.5312 24.375V11.25C59.5312 10.877 59.3831 10.5194 59.1194 10.2556C58.8556 9.99191 58.498 9.84375 58.125 9.84375H1.875C1.50204 9.84375 1.14435 9.99191 0.880631 10.2556C0.616908 10.5194 0.46875 10.877 0.46875 11.25V24.375C0.46875 25.1513 1.09875 25.7812 1.875 25.7812C4.2 25.7812 6.09375 27.675 6.09375 30C6.09375 32.325 4.2 34.2188 1.875 34.2188C1.50204 34.2188 1.14435 34.3669 0.880631 34.6306C0.616908 34.8944 0.46875 35.252 0.46875 35.625V48.75C0.46875 49.5263 1.09875 50.1562 1.875 50.1562H58.125C58.498 50.1562 58.8556 50.0081 59.1194 49.7444C59.3831 49.4806 59.5312 49.123 59.5312 48.75V35.625C59.5312 35.252 59.3831 34.8944 59.1194 34.6306C58.8556 34.3669 58.498 34.2188 58.125 34.2188C55.8 34.2188 53.9062 32.325 53.9062 30C53.9062 27.675 55.8 25.7812 58.125 25.7812ZM56.7188 36.8887V47.3438H3.28125V36.8887C6.4875 36.2362 8.90625 33.3937 8.90625 30C8.90625 26.6063 6.4875 23.7638 3.28125 23.1113V12.6562H56.7188V23.1113C53.5125 23.7638 51.0938 26.6063 51.0938 30C51.0938 33.3937 53.5125 36.2362 56.7188 36.8887Z" fill="#187586"/>
<path id="Vector_2" d="M44.94 19.5262C44.6478 19.2955 44.2764 19.1893 43.9064 19.2307C43.5364 19.2721 43.1977 19.4578 42.9637 19.7475L27.9637 38.4975C27.8 38.7048 27.6979 38.954 27.6689 39.2165C27.6399 39.4791 27.6853 39.7445 27.7998 39.9826C27.9143 40.2206 28.0934 40.4217 28.3167 40.5629C28.5399 40.7041 28.7983 40.7798 29.0625 40.7812C29.475 40.7812 29.8838 40.6012 30.1613 40.2562L45.1613 21.5063C45.3942 21.2142 45.5017 20.8417 45.4602 20.4705C45.4187 20.0993 45.2316 19.7597 44.94 19.5262ZM35.1562 24.375C35.1562 21.5325 32.8425 19.2188 30 19.2188C27.1575 19.2188 24.8438 21.5325 24.8438 24.375C24.8438 27.2175 27.1575 29.5312 30 29.5312C32.8425 29.5312 35.1562 27.2175 35.1562 24.375ZM27.6562 24.375C27.6439 24.0591 27.6954 23.7439 27.8079 23.4484C27.9203 23.1529 28.0912 22.8831 28.3105 22.6553C28.5297 22.4275 28.7927 22.2463 29.0837 22.1226C29.3747 21.999 29.6877 21.9353 30.0038 21.9356C30.32 21.9358 30.6329 22 30.9236 22.1241C31.2144 22.2482 31.4771 22.4298 31.696 22.658C31.9149 22.8862 32.0854 23.1562 32.1974 23.4519C32.3093 23.7476 32.3604 24.0628 32.3475 24.3787C32.3228 24.9846 32.0646 25.5574 31.627 25.9772C31.1895 26.3969 30.6064 26.6311 30.0001 26.6306C29.3937 26.6301 28.8111 26.395 28.3742 25.9746C27.9373 25.5541 27.68 24.9809 27.6562 24.375ZM43.125 30.4688C40.2825 30.4688 37.9688 32.7825 37.9688 35.625C37.9688 38.4675 40.2825 40.7812 43.125 40.7812C45.9675 40.7812 48.2812 38.4675 48.2812 35.625C48.2812 32.7825 45.9675 30.4688 43.125 30.4688ZM43.125 37.9688C42.8091 37.9811 42.4939 37.9296 42.1984 37.8171C41.9029 37.7047 41.6331 37.5338 41.4053 37.3145C41.1775 37.0953 40.9963 36.8323 40.8726 36.5413C40.749 36.2503 40.6853 35.9373 40.6856 35.6212C40.6858 35.305 40.75 34.9921 40.8741 34.7014C40.9982 34.4106 41.1798 34.1479 41.408 33.929C41.6362 33.7101 41.9062 33.5396 42.2019 33.4276C42.4976 33.3157 42.8128 33.2646 43.1288 33.2775C43.7346 33.3022 44.3074 33.5604 44.7272 33.998C45.1469 34.4355 45.3811 35.0186 45.3806 35.6249C45.3801 36.2313 45.145 36.8139 44.7246 37.2508C44.3041 37.6877 43.7309 37.945 43.125 37.9688ZM16.875 15.4688C16.502 15.4688 16.1444 15.6169 15.8806 15.8806C15.6169 16.1444 15.4688 16.502 15.4688 16.875V20.625C15.4688 20.998 15.6169 21.3556 15.8806 21.6194C16.1444 21.8831 16.502 22.0312 16.875 22.0312C17.248 22.0312 17.6056 21.8831 17.8694 21.6194C18.1331 21.3556 18.2812 20.998 18.2812 20.625V16.875C18.2812 16.502 18.1331 16.1444 17.8694 15.8806C17.6056 15.6169 17.248 15.4688 16.875 15.4688ZM16.875 26.7188C16.502 26.7188 16.1444 26.8669 15.8806 27.1306C15.6169 27.3944 15.4688 27.752 15.4688 28.125V31.875C15.4688 32.248 15.6169 32.6056 15.8806 32.8694C16.1444 33.1331 16.502 33.2812 16.875 33.2812C17.248 33.2812 17.6056 33.1331 17.8694 32.8694C18.1331 32.6056 18.2812 32.248 18.2812 31.875V28.125C18.2812 27.752 18.1331 27.3944 17.8694 27.1306C17.6056 26.8669 17.248 26.7188 16.875 26.7188ZM16.875 37.9688C16.502 37.9688 16.1444 38.1169 15.8806 38.3806C15.6169 38.6444 15.4688 39.002 15.4688 39.375V43.125C15.4688 43.498 15.6169 43.8556 15.8806 44.1194C16.1444 44.3831 16.502 44.5312 16.875 44.5312C17.248 44.5312 17.6056 44.3831 17.8694 44.1194C18.1331 43.8556 18.2812 43.498 18.2812 43.125V39.375C18.2812 39.002 18.1331 38.6444 17.8694 38.3806C17.6056 38.1169 17.248 37.9688 16.875 37.9688Z" fill="#187586"/>
</g>
</g>
</svg>
